<svg width="600.77" height="106.73" xmlns="http://www.w3.org/2000/svg">
 <defs>
  <style>.cls-1{fill:none;stroke-linecap:round;stroke-miterlimit:10;stroke-width:7px;stroke:url(#未命名的渐变);}.cls-2,.cls-3,.cls-4{isolation:isolate;}.cls-3,.cls-4{font-size:91.55px;font-family:Arial-BoldMT, Arial;font-weight:700;}.cls-3{fill:#13518c;letter-spacing:-0.03em;}.cls-4{fill:#39c2ff;letter-spacing:-0.03em;}.cls-5{letter-spacing:-0.11em;}.cls-6{letter-spacing:-0.03em;}</style>
 </defs>
 <title>logo_new</title>
 <g stroke="null">
  <title>background</title>
  <rect x="-1" y="-1" width="602.77" height="108.73" id="canvas_background" fill="none" stroke="null"/>
 </g>
 <g stroke="null">
  <title>Layer 1</title>
  <text fill="#003f7f" stroke-width="0" stroke-opacity="null" x="118.469935" y="44.778429" id="svg_7" font-size="69" font-family="Helvetica, Arial, sans-serif" text-anchor="start" xml:space="preserve" transform="matrix(0.98890620470047,0,0,1.014084570780227,3.7292486261576414,36.74526891710272) " stroke="null" font-weight="bold">Cloud</text>
  <text font-weight="bold" fill="#56aaff" stroke-width="0" stroke-opacity="null" x="327.364865" y="60.232761" id="svg_8" font-size="69" font-family="'Palatino Linotype', 'Book Antiqua', Palatino, serif" text-anchor="start" xml:space="preserve" transform="matrix(1.0311416387557983,0,0,0.9872590480899532,-19.67421687208116,20.813485834104696) " stroke="null">Platform</text>
  <defs>
   <style>.cls-1{fill:none;stroke-linecap:round;stroke-miterlimit:10;stroke-width:7px;stroke:url(#未命名的渐变);}.cls-2,.cls-3,.cls-4{isolation:isolate;}.cls-3,.cls-4{font-size:91.55px;font-family:Arial-BoldMT, Arial;font-weight:700;}.cls-3{fill:#13518c;letter-spacing:-0.03em;}.cls-4{fill:#39c2ff;letter-spacing:-0.03em;}.cls-5{letter-spacing:-0.11em;}.cls-6{letter-spacing:-0.03em;}</style>
  </defs>
  <path id="svg_21" d="m-464.806872,-63.477968c-0.142822,0 -0.265412,0.074066 -0.325418,0.180991c-0.023966,-0.01338 -0.0504,-0.021481 -0.078612,-0.021481c-0.085313,0 -0.156306,0.068631 -0.178249,0.161795c-0.037453,-0.014804 -0.081,-0.023766 -0.127516,-0.023766c-0.139549,0 -0.252748,0.076352 -0.252748,0.170479c0,0.084966 0.092838,0.154815 0.213441,0.167737c-0.005405,0.009171 -0.009598,0.018253 -0.009598,0.02788c0,0.090122 0.246907,0.163623 0.5512,0.163623c0.304293,0 0.5512,-0.073502 0.5512,-0.163623c0,-0.006064 -0.003764,-0.011475 -0.005942,-0.017368c0.013328,0.003314 0.026525,0.006856 0.041134,0.006856c0.081403,0 0.147626,-0.055311 0.147626,-0.123403c0,-0.068092 -0.066223,-0.123403 -0.147626,-0.123403c-0.009976,0 -0.018458,0.003446 -0.02788,0.005028c0.008238,-0.027227 0.013711,-0.055008 0.013711,-0.084554c0,-0.180243 -0.163154,-0.326789 -0.364724,-0.326789l0,0z" stroke-width="1.5" stroke="null" fill="#56aaff"/>
  <path id="svg_22" d="m-481.721872,-75.417967c-0.142822,0 -0.265412,0.089532 -0.325418,0.218785c-0.023966,-0.016174 -0.0504,-0.025967 -0.078612,-0.025967c-0.085313,0 -0.156306,0.082962 -0.178249,0.195581c-0.037453,-0.017895 -0.081,-0.028729 -0.127516,-0.028729c-0.139549,0 -0.252748,0.092296 -0.252748,0.206078c0,0.102708 0.092838,0.187143 0.213441,0.202763c-0.005405,0.011086 -0.009598,0.022064 -0.009598,0.033702c0,0.10894 0.246907,0.19779 0.5512,0.19779c0.304293,0 0.5512,-0.08885 0.5512,-0.19779c0,-0.00733 -0.003764,-0.013871 -0.005942,-0.020995c0.013328,0.004007 0.026525,0.008287 0.041134,0.008287c0.081403,0 0.147626,-0.066861 0.147626,-0.149172c0,-0.082311 -0.066223,-0.149172 -0.147626,-0.149172c-0.009976,0 -0.018458,0.004165 -0.02788,0.006077c0.008238,-0.032912 0.013711,-0.066494 0.013711,-0.10221c0,-0.217881 -0.163154,-0.395028 -0.364724,-0.395028l0,0z" stroke-width="1.5" stroke="null" fill="#56aaff"/>
  <path id="svg_24" d="m-470.098012,-198.797952c-0.095913,0 -0.17824,0.268592 -0.218537,0.656343c-0.016095,-0.04852 -0.033847,-0.077899 -0.052793,-0.077899c-0.057293,0 -0.104969,0.248882 -0.119704,0.586731c-0.025152,-0.053684 -0.054396,-0.086186 -0.085635,-0.086186c-0.093715,0 -0.169735,0.276881 -0.169735,0.618222c0,0.308118 0.062346,0.561419 0.143338,0.608277c-0.00363,0.033258 -0.006446,0.066192 -0.006446,0.101103c0,0.326815 0.165812,0.59336 0.370163,0.59336c0.204351,0 0.370163,-0.266545 0.370163,-0.59336c0,-0.021989 -0.002527,-0.041613 -0.00399,-0.062982c0.008951,0.01202 0.017813,0.024862 0.027624,0.024862c0.054667,0.000001 0.09914,-0.200579 0.09914,-0.447507c0,-0.246927 -0.044473,-0.447506 -0.09914,-0.447506c-0.006699,0 -0.012396,0.012496 -0.018723,0.018232c0.005533,-0.098734 0.009208,-0.199479 0.009208,-0.306625c0,-0.65363 -0.109568,-1.185063 -0.244933,-1.185063l0,0z" stroke-width="1.5" stroke="null" fill="#56aaff"/>
  <path opacity="0.95" stroke="null" id="svg_29" d="m98.287764,45.039764c0.082242,-0.884776 0.129855,-1.778627 0.129855,-2.681552c0,-15.662807 -12.111149,-28.358211 -27.053139,-28.358211c-11.596058,0 -21.460714,7.663523 -25.308753,18.416957c-2.549488,-2.931105 -6.18543,-4.805015 -10.267207,-4.805015c-7.696077,0 -13.933449,6.538269 -13.933449,14.605613c0,0.952836 0.099556,1.882985 0.268367,2.781373c-10.267207,1.77409 -18.123439,11.052896 -18.123439,22.314509c0,12.532061 9.691517,22.686569 21.642511,22.686569l68.714973,0c11.955323,0 21.642511,-10.154508 21.642511,-22.686569c0.004329,-11.120956 -7.639806,-20.331703 -17.712231,-22.273673z" fill-opacity="null" stroke-opacity="null" stroke-width="0" fill="#56aaff"/>
  <path id="svg_32" d="m86.691525,57.132091l-6.351084,-5.300037l0,-12.658123l-5.444675,0l0,8.114492l-12.704242,-10.601806l-24.500001,20.445474l5.832543,-0.115971l0,20.670492l37.075645,0l0,-20.554521l6.091814,0zm-24.500001,17.598132l-12.098587,0l0,-12.116349l12.098587,0l0,12.116349zm11.754276,-5.192721l-7.950263,0l0,-6.996326l7.950263,0l0,6.996326z" stroke-opacity="null" stroke-width="0" stroke="null" fill="#003f7f"/>
 </g>
</svg>